<svg xmlns="http://www.w3.org/2000/svg" xmlns:xlink="http://www.w3.org/1999/xlink" width="1080" zoomAndPan="magnify" viewBox="0 0 810 809.999993" height="1080" preserveAspectRatio="xMidYMid meet" version="1.0"><defs><clipPath id="8f31ce467b"><path d="M 39.414062 81 L 770.664062 81 L 770.664062 729 L 39.414062 729 Z M 39.414062 81 " clip-rule="nonzero"/></clipPath></defs><g clip-path="url(#8f31ce467b)"><path fill="#ffffff" d="M 405.039062 728.835938 L 397.289062 723.570312 C 396.410156 722.984375 307.34375 662.152344 219.59375 578.066406 C 167.820312 528.347656 126.433594 480.382812 96.597656 435.34375 C 58.71875 377.726562 39.414062 324.351562 39.414062 276.972656 C 39.414062 169.050781 127.3125 81.164062 235.242188 81.164062 C 275.316406 81.164062 314.070312 93.449219 347.125 116.847656 C 371.109375 133.808594 390.707031 155.453125 405.039062 180.3125 C 419.371094 155.304688 438.96875 133.664062 462.953125 116.847656 C 496.007812 93.449219 534.761719 81.164062 574.835938 81.164062 C 682.769531 81.164062 770.664062 169.050781 770.664062 276.972656 L 770.664062 277.117188 C 770.226562 324.207031 750.773438 377.140625 712.75 434.613281 C 682.914062 479.652344 641.671875 527.617188 589.898438 577.484375 C 502.296875 661.859375 413.667969 722.984375 412.789062 723.570312 Z M 235.242188 108.511719 C 142.375 108.511719 66.761719 184.113281 66.761719 276.972656 C 66.761719 318.941406 84.460938 367.050781 119.414062 419.988281 C 147.933594 463.273438 188.003906 509.777344 238.316406 558.035156 C 309.539062 626.324219 381.785156 679.113281 405.039062 695.492188 C 428.292969 678.96875 500.101562 625.886719 571.179688 557.449219 C 621.34375 509.046875 661.269531 462.6875 689.933594 419.402344 C 724.886719 366.46875 742.878906 318.648438 743.167969 276.972656 C 743.167969 184.113281 667.558594 108.65625 574.691406 108.65625 C 505.804688 108.65625 442.773438 152.234375 417.617188 217.164062 L 404.894531 250.210938 L 392.316406 217.164062 C 367.160156 152.234375 304.128906 108.511719 235.242188 108.511719 Z M 235.242188 108.511719 " fill-opacity="1" fill-rule="nonzero"/></g></svg>