<svg xmlns="http://www.w3.org/2000/svg" xmlns:xlink="http://www.w3.org/1999/xlink" width="1080" zoomAndPan="magnify" viewBox="0 0 810 809.999993" height="1080" preserveAspectRatio="xMidYMid meet" version="1.0"><defs><clipPath id="4382154eff"><path d="M 0 67.746094 L 287 67.746094 L 287 267 L 0 267 Z M 0 67.746094 " clip-rule="nonzero"/></clipPath><clipPath id="aacae0ffd8"><path d="M 507 67.746094 L 794 67.746094 L 794 267 L 507 267 Z M 507 67.746094 " clip-rule="nonzero"/></clipPath><clipPath id="d2758ecb9e"><path d="M 0 67.746094 L 574 67.746094 L 574 729 L 0 729 Z M 0 67.746094 " clip-rule="nonzero"/></clipPath></defs><rect x="-81" width="972" fill="#ffffff" y="-80.999999" height="971.999992" fill-opacity="1"/><rect x="-81" width="972" fill="#ffffff" y="-80.999999" height="971.999992" fill-opacity="1"/><g clip-path="url(#4382154eff)"><path fill="#ffcfc7" d="M 286.828125 67.746094 L 154.578125 67.746094 L 0.285156 266.121094 L 220.703125 266.121094 Z M 286.828125 67.746094 " fill-opacity="1" fill-rule="nonzero"/></g><g clip-path="url(#aacae0ffd8)"><path fill="#9966cc" d="M 793.789062 266.121094 L 639.496094 67.746094 L 507.246094 67.746094 L 573.371094 266.121094 Z M 793.789062 266.121094 " fill-opacity="1" fill-rule="nonzero"/></g><path fill="#ffcfc7" d="M 573.371094 266.121094 L 793.789062 266.121094 L 397.035156 729 Z M 573.371094 266.121094 " fill-opacity="1" fill-rule="nonzero"/><g clip-path="url(#d2758ecb9e)"><path fill="#cfb1fc" d="M 220.703125 266.121094 L 0.285156 266.121094 L 397.035156 729 Z M 286.828125 67.746094 L 220.703125 266.121094 L 573.371094 266.121094 L 507.246094 67.746094 Z M 286.828125 67.746094 " fill-opacity="1" fill-rule="nonzero"/></g><path fill="#9966cc" d="M 397.035156 729 L 220.703125 266.121094 L 573.371094 266.121094 Z M 397.035156 729 " fill-opacity="1" fill-rule="nonzero"/></svg>