<svg xmlns="http://www.w3.org/2000/svg" xmlns:xlink="http://www.w3.org/1999/xlink" width="1080" zoomAndPan="magnify" viewBox="0 0 810 809.999993" height="1080" preserveAspectRatio="xMidYMid meet" version="1.0"><defs><clipPath id="2e469eb625"><path d="M 34 0 L 790 0 L 790 810 L 34 810 Z M 34 0 " clip-rule="nonzero"/></clipPath><clipPath id="7940cd4356"><path d="M 674.730469 -526.152344 L 818.929688 1281.605469 L 135.597656 1336.113281 L -8.601562 -471.644531 Z M 674.730469 -526.152344 " clip-rule="nonzero"/></clipPath><clipPath id="34fa7b74c0"><path d="M 674.730469 -526.152344 L 818.929688 1281.605469 L 135.597656 1336.113281 L -8.601562 -471.644531 Z M 674.730469 -526.152344 " clip-rule="nonzero"/></clipPath></defs><rect x="-81" width="972" fill="#ffffff" y="-80.999999" height="971.999992" fill-opacity="1"/><rect x="-81" width="972" fill="#ffffff" y="-80.999999" height="971.999992" fill-opacity="1"/><g clip-path="url(#2e469eb625)"><g clip-path="url(#7940cd4356)"><g clip-path="url(#34fa7b74c0)"><path fill="#a267f5" d="M 702.59375 1183.652344 C 737.40625 1144.347656 764.902344 1097.824219 778.941406 1047.054688 C 794.9375 989.742188 790.835938 929.425781 775.328125 872.855469 C 742.371094 753.128906 666.714844 644.96875 589.578125 549.335938 C 510.832031 451.351562 418.789062 368.964844 321.714844 290.175781 C 222.386719 209.792969 147.121094 106.5625 115.503906 -18.589844 C 87.480469 -129.839844 96.828125 -257.195312 177.054688 -345.164062 C 245.167969 -420.464844 362.597656 -451.109375 451.964844 -393.335938 C 502.789062 -360.863281 529.246094 -304.808594 530.5 -244.621094 C 531.773438 -188.6875 521.324219 -124.015625 483.328125 -80.203125 C 465.757812 -60.359375 442.257812 -48.199219 415.660156 -48.207031 C 412.105469 -48.277344 411.851562 -42.582031 415.429688 -42.15625 C 519.695312 -28.839844 550.023438 -177.730469 548.589844 -253.511719 C 547.433594 -308.035156 529.964844 -358.066406 491.675781 -397.921875 C 457.300781 -433.128906 412.003906 -458.597656 363.683594 -468.574219 C 253.699219 -491.363281 147.894531 -426.179688 89.09375 -336.375 C 20.222656 -230.515625 21.152344 -94.40625 64.75 20.925781 C 86.332031 78.074219 117.558594 131.617188 156.085938 178.90625 C 196.191406 228.195312 244.289062 266.5625 295.480469 303.617188 C 347.429688 341.320312 400.320312 377.53125 448.378906 419.804688 C 496.464844 462.425781 540.601562 508.910156 580.765625 558.90625 C 620.136719 607.898438 655.097656 659.371094 685.378906 714.410156 C 718.109375 773.507812 745.539062 837.28125 753.753906 904.71875 C 760.917969 963.375 753.277344 1023.210938 725.550781 1075.78125 C 700.605469 1123.167969 662.550781 1157.410156 615.550781 1181.730469 C 526.285156 1227.507812 411.277344 1212.921875 333.257812 1150.695312 C 259.394531 1091.6875 194.0625 961.777344 275.609375 881.503906 C 298.296875 859.125 325.828125 844.164062 357.925781 850.824219 C 363.703125 852.136719 365.46875 843.128906 359.6875 841.816406 C 246.222656 815.402344 176.828125 936.910156 183.261719 1035.34375 C 191.28125 1158.121094 287.351562 1246.566406 402.507812 1276.390625 C 511.535156 1304.933594 629.105469 1267.183594 702.59375 1183.652344 Z M 702.59375 1183.652344 " fill-opacity="1" fill-rule="nonzero"/></g></g></g></svg>